<?xml version="1.0" encoding="UTF-8" standalone="no"?>
<svg xmlns:rdf="http://www.w3.org/1999/02/22-rdf-syntax-ns#" xmlns="http://www.w3.org/2000/svg" height="18.062mm" width="18.062mm" version="1.1" xmlns:cc="http://creativecommons.org/ns#" xmlns:dc="http://purl.org/dc/elements/1.1/" viewBox="0 0 63.999997 63.999998">
	<path fill="white" fill-opacity=".3" d="m0-0.000002463s9.0996 6.4435 13.003 10.521c3.5964 3.757 9.4295 12.672 9.4295 12.672s-3.9454-0.47485-5.924-0.63537c-2.6588-0.21569-5.555 0.0721-7.988-0.43983-1.7772-0.37395-7.8279-2.1809-7.8279-2.1809s3.2051 6.5 5.3974 9.2586c4.0736 5.1258 14.144 13.213 14.144 13.213-10.246 5.118-15.83 12.229-20.234 20.016v1.5751c1.3466-0.1073 3.8969-0.34395 5.3715-0.71368 3.8881-0.97488 7.3168-4.1373 11.3-4.3318 3.9979-0.19527 7.7608 2.8704 11.645 3.2251s10.511-0.0158 10.511-0.0158 3.045-5.1003 4.3518-8.0253c1.8001-4.0292 3.5144-8.1021 3.5144-8.1021s2.5082 0.3118 3.7494 0.14333c3.9659-0.5383 7.5578-3.1028 11.523-3.6482 0.67694-0.0931 1.355-0.15166 2.0341-0.1847v-8.8621c-2.3396 0.10719-4.7109 0.43319-6.9928-0.0246-3.7341-0.74918-7.9007-1.3012-10.787-4.023-1.6576-1.563-2.0707-4.238-3.0378-6.3955-1.4615-3.2605-4.1757-9.8925-4.1757-9.8925s-6.667-2.0837-9.874-3.5118c-2.659-1.184-5.0243-3.1152-7.7262-4.1742-3.0276-1.1867-7.7884-1.145-11.606-2.1396-3.3256-0.8649-9.8-3.322-9.8-3.322zm20.235 42.409s-4.145-1.4239-6.1251-2.3922c-3.5636-1.7426-6.5329-4.9976-10.295-6.1197-1.2436-0.371-2.5222-0.459-3.815-0.441v8.8656c4.9691-0.0782 9.9841 1.0942 14.964 0.8309 1.769-0.0935 3.8093-0.34163 5.2703-0.74372z"/>
</svg>
